<svg width="176" height="59" viewBox="0 0 176 59" fill="none" xmlns="http://www.w3.org/2000/svg">
<path d="M29.1987 58.3974C45.3247 58.3974 58.3974 45.3247 58.3974 29.1987C58.3974 13.0727 45.3247 0 29.1987 0C13.0727 0 0 13.0727 0 29.1987C0 45.3247 13.0727 58.3974 29.1987 58.3974Z" fill="#C0E5D9"/>
<path d="M20.3661 43.6703C17.8295 42.2377 15.8129 40.2668 14.3256 37.7393C12.8383 35.2118 12.0901 32.374 12.0901 29.2078C12.0901 26.0416 12.8383 23.2038 14.3256 20.6763C15.8129 18.1488 17.8295 16.187 20.3661 14.7727C22.9027 13.3584 25.6949 12.6467 28.7333 12.6467C31.7718 12.6467 34.5548 13.3493 37.0823 14.7727C39.6099 16.187 41.6081 18.1579 43.0863 20.6763C44.5645 23.2038 45.2945 26.0416 45.2945 29.2078C45.2945 32.374 44.5554 35.2118 43.0863 37.7393C41.6081 40.2668 39.6007 42.2377 37.0641 43.6703C34.5275 45.1028 31.7445 45.8146 28.7425 45.8146C25.7405 45.8146 22.9119 45.1028 20.3752 43.6703H20.3661ZM33.3869 34.4362C34.4818 33.1405 35.0293 31.3977 35.0293 29.2078C35.0293 27.0179 34.4818 25.2295 33.3869 23.9429C32.2919 22.6472 30.7408 22.0085 28.7333 22.0085C26.7259 22.0085 25.1291 22.6563 24.0342 23.9429C22.9392 25.2386 22.3918 26.9905 22.3918 29.2078C22.3918 31.4251 22.9392 33.1405 24.0342 34.4362C25.1291 35.7319 26.6986 36.3706 28.7333 36.3706C30.7681 36.3706 32.2919 35.7228 33.3869 34.4362V34.4362Z" fill="white" fill-opacity="0.89"/>
<path d="M87.7694 13.1942V45.4953H77.6867V29.3904L72.7138 45.4953H64.0455L59.0726 29.3904V45.4953H48.9443V13.1942H61.3537L68.4709 32.584L75.4056 13.1942H87.7694V13.1942Z" fill="white" fill-opacity="0.89"/>
<path d="M123.31 45.4953H113.181L102.46 29.2535V45.4953H92.3318V13.1942H102.46L113.181 29.7097V13.1942H123.31V45.4953Z" fill="white" fill-opacity="0.89"/>
<path d="M138 13.1942V45.4953H127.872V13.1942H138Z" fill="white" fill-opacity="0.89"/>
<path d="M163.275 40.6136H152.508L150.912 45.4953H140.281L152.098 13.1942H163.777L175.548 45.4953H164.872L163.275 40.6136ZM160.812 32.9946L157.892 24.0069L154.972 32.9946H160.812V32.9946Z" fill="white" fill-opacity="0.89"/>
</svg>
