solid 
 facet normal  9.238795e-01  3.826834e-01 -1.230533e-17
   outer loop
     vertex -1.751750e-01  4.598250e-01  0.000000e+00
     vertex -1.607500e-01  4.250000e-01  0.000000e+00
     vertex -1.607500e-01  4.250000e-01 -3.200000e-02
   endloop
 endfacet
 facet normal  9.238795e-01  3.826834e-01  0.000000e+00
   outer loop
     vertex -1.751750e-01  4.598250e-01  0.000000e+00
     vertex -1.607500e-01  4.250000e-01 -3.200000e-02
     vertex -1.751750e-01  4.598250e-01 -3.200000e-02
   endloop
 endfacet
 facet normal  3.826834e-01  9.238795e-01  0.000000e+00
   outer loop
     vertex -2.100000e-01  4.742500e-01  0.000000e+00
     vertex -1.751750e-01  4.598250e-01 -3.200000e-02
     vertex -2.100000e-01  4.742500e-01 -3.200000e-02
   endloop
 endfacet
 facet normal  3.826834e-01  9.238795e-01 -3.991803e-17
   outer loop
     vertex -2.100000e-01  4.742500e-01  0.000000e+00
     vertex -1.751750e-01  4.598250e-01  0.000000e+00
     vertex -1.751750e-01  4.598250e-01 -3.200000e-02
   endloop
 endfacet
 facet normal -3.826834e-01  9.238795e-01  0.000000e+00
   outer loop
     vertex -2.448250e-01  4.598250e-01  0.000000e+00
     vertex -2.100000e-01  4.742500e-01 -3.200000e-02
     vertex -2.448250e-01  4.598250e-01 -3.200000e-02
   endloop
 endfacet
 facet normal -3.826834e-01  9.238795e-01  3.991803e-17
   outer loop
     vertex -2.448250e-01  4.598250e-01  0.000000e+00
     vertex -2.100000e-01  4.742500e-01  0.000000e+00
     vertex -2.100000e-01  4.742500e-01 -3.200000e-02
   endloop
 endfacet
 facet normal -9.238795e-01  3.826834e-01  0.000000e+00
   outer loop
     vertex -2.592500e-01  4.250000e-01  0.000000e+00
     vertex -2.448250e-01  4.598250e-01 -3.200000e-02
     vertex -2.592500e-01  4.250000e-01 -3.200000e-02
   endloop
 endfacet
 facet normal -9.238795e-01  3.826834e-01  1.230533e-17
   outer loop
     vertex -2.592500e-01  4.250000e-01  0.000000e+00
     vertex -2.448250e-01  4.598250e-01  0.000000e+00
     vertex -2.448250e-01  4.598250e-01 -3.200000e-02
   endloop
 endfacet
 facet normal -8.660254e-01 -5.000000e-01 -7.511573e-16
   outer loop
     vertex -1.975000e-01  4.466506e-01  0.000000e+00
     vertex -1.975000e-01  4.466506e-01 -3.200000e-02
     vertex -1.850000e-01  4.250000e-01 -3.200000e-02
   endloop
 endfacet
 facet normal -8.660254e-01 -5.000000e-01  1.124520e-17
   outer loop
     vertex -1.975000e-01  4.466506e-01  0.000000e+00
     vertex -1.850000e-01  4.250000e-01 -3.200000e-02
     vertex -1.850000e-01  4.250000e-01  0.000000e+00
   endloop
 endfacet
 facet normal  0.000000e+00 -1.000000e+00  0.000000e+00
   outer loop
     vertex -2.225000e-01  4.466506e-01  0.000000e+00
     vertex -2.225000e-01  4.466506e-01 -3.200000e-02
     vertex -1.975000e-01  4.466506e-01 -3.200000e-02
   endloop
 endfacet
 facet normal  0.000000e+00 -1.000000e+00  0.000000e+00
   outer loop
     vertex -2.225000e-01  4.466506e-01  0.000000e+00
     vertex -1.975000e-01  4.466506e-01 -3.200000e-02
     vertex -1.975000e-01  4.466506e-01  0.000000e+00
   endloop
 endfacet
 facet normal  8.660254e-01 -5.000000e-01  0.000000e+00
   outer loop
     vertex -2.350000e-01  4.250000e-01  0.000000e+00
     vertex -2.350000e-01  4.250000e-01 -3.200000e-02
     vertex -2.225000e-01  4.466506e-01 -3.200000e-02
   endloop
 endfacet
 facet normal  8.660254e-01 -5.000000e-01  7.399121e-16
   outer loop
     vertex -2.350000e-01  4.250000e-01  0.000000e+00
     vertex -2.225000e-01  4.466506e-01 -3.200000e-02
     vertex -2.225000e-01  4.466506e-01  0.000000e+00
   endloop
 endfacet
 facet normal  8.660254e-01  5.000000e-01  5.476899e-18
   outer loop
     vertex -2.225000e-01  4.033494e-01  0.000000e+00
     vertex -2.350000e-01  4.250000e-01 -3.200000e-02
     vertex -2.350000e-01  4.250000e-01  0.000000e+00
   endloop
 endfacet
 facet normal  8.660254e-01  5.000000e-01 -7.511573e-16
   outer loop
     vertex -2.225000e-01  4.033494e-01  0.000000e+00
     vertex -2.225000e-01  4.033494e-01 -3.200000e-02
     vertex -2.350000e-01  4.250000e-01 -3.200000e-02
   endloop
 endfacet
 facet normal  0.000000e+00  1.000000e+00  0.000000e+00
   outer loop
     vertex -1.975000e-01  4.033494e-01  0.000000e+00
     vertex -1.975000e-01  4.033494e-01 -3.200000e-02
     vertex -2.225000e-01  4.033494e-01 -3.200000e-02
   endloop
 endfacet
 facet normal  0.000000e+00  1.000000e+00  0.000000e+00
   outer loop
     vertex -1.975000e-01  4.033494e-01  0.000000e+00
     vertex -2.225000e-01  4.033494e-01 -3.200000e-02
     vertex -2.225000e-01  4.033494e-01  0.000000e+00
   endloop
 endfacet
 facet normal -8.660254e-01  5.000000e-01  0.000000e+00
   outer loop
     vertex -1.850000e-01  4.250000e-01  0.000000e+00
     vertex -1.850000e-01  4.250000e-01 -3.200000e-02
     vertex -1.975000e-01  4.033494e-01 -3.200000e-02
   endloop
 endfacet
 facet normal -8.660254e-01  5.000000e-01  7.341438e-16
   outer loop
     vertex -1.850000e-01  4.250000e-01  0.000000e+00
     vertex -1.975000e-01  4.033494e-01 -3.200000e-02
     vertex -1.975000e-01  4.033494e-01  0.000000e+00
   endloop
 endfacet
 facet normal -9.238795e-01 -3.826834e-01 -1.230533e-17
   outer loop
     vertex -2.448250e-01  3.901750e-01  0.000000e+00
     vertex -2.592500e-01  4.250000e-01  0.000000e+00
     vertex -2.592500e-01  4.250000e-01 -3.200000e-02
   endloop
 endfacet
 facet normal -9.238795e-01 -3.826834e-01 -0.000000e+00
   outer loop
     vertex -2.448250e-01  3.901750e-01  0.000000e+00
     vertex -2.592500e-01  4.250000e-01 -3.200000e-02
     vertex -2.448250e-01  3.901750e-01 -3.200000e-02
   endloop
 endfacet
 facet normal -3.826834e-01 -9.238795e-01 -0.000000e+00
   outer loop
     vertex -2.100000e-01  3.757500e-01  0.000000e+00
     vertex -2.448250e-01  3.901750e-01 -3.200000e-02
     vertex -2.100000e-01  3.757500e-01 -3.200000e-02
   endloop
 endfacet
 facet normal -3.826834e-01 -9.238795e-01 -3.991803e-17
   outer loop
     vertex -2.100000e-01  3.757500e-01  0.000000e+00
     vertex -2.448250e-01  3.901750e-01  0.000000e+00
     vertex -2.448250e-01  3.901750e-01 -3.200000e-02
   endloop
 endfacet
 facet normal  3.826834e-01 -9.238795e-01  0.000000e+00
   outer loop
     vertex -1.751750e-01  3.901750e-01  0.000000e+00
     vertex -2.100000e-01  3.757500e-01 -3.200000e-02
     vertex -1.751750e-01  3.901750e-01 -3.200000e-02
   endloop
 endfacet
 facet normal  3.826834e-01 -9.238795e-01  3.991803e-17
   outer loop
     vertex -1.751750e-01  3.901750e-01  0.000000e+00
     vertex -2.100000e-01  3.757500e-01  0.000000e+00
     vertex -2.100000e-01  3.757500e-01 -3.200000e-02
   endloop
 endfacet
 facet normal  9.238795e-01 -3.826834e-01  0.000000e+00
   outer loop
     vertex -1.607500e-01  4.250000e-01  0.000000e+00
     vertex -1.751750e-01  3.901750e-01 -3.200000e-02
     vertex -1.607500e-01  4.250000e-01 -3.200000e-02
   endloop
 endfacet
 facet normal  9.238795e-01 -3.826834e-01  1.230533e-17
   outer loop
     vertex -1.607500e-01  4.250000e-01  0.000000e+00
     vertex -1.751750e-01  3.901750e-01  0.000000e+00
     vertex -1.751750e-01  3.901750e-01 -3.200000e-02
   endloop
 endfacet
 facet normal  0.000000e+00  0.000000e+00  1.000000e+00
   outer loop
     vertex -2.225000e-01  4.033494e-01  0.000000e+00
     vertex -2.448250e-01  3.901750e-01  0.000000e+00
     vertex -2.100000e-01  3.757500e-01  0.000000e+00
   endloop
 endfacet
 facet normal  0.000000e+00  0.000000e+00  1.000000e+00
   outer loop
     vertex -2.350000e-01  4.250000e-01  0.000000e+00
     vertex -2.592500e-01  4.250000e-01  0.000000e+00
     vertex -2.448250e-01  3.901750e-01  0.000000e+00
   endloop
 endfacet
 facet normal  0.000000e+00  0.000000e+00  1.000000e+00
   outer loop
     vertex -2.350000e-01  4.250000e-01  0.000000e+00
     vertex -2.448250e-01  3.901750e-01  0.000000e+00
     vertex -2.225000e-01  4.033494e-01  0.000000e+00
   endloop
 endfacet
 facet normal  0.000000e+00  0.000000e+00  1.000000e+00
   outer loop
     vertex -1.975000e-01  4.033494e-01  0.000000e+00
     vertex -2.225000e-01  4.033494e-01  0.000000e+00
     vertex -2.100000e-01  3.757500e-01  0.000000e+00
   endloop
 endfacet
 facet normal  0.000000e+00  0.000000e+00  1.000000e+00
   outer loop
     vertex -2.448250e-01  4.598250e-01  0.000000e+00
     vertex -2.592500e-01  4.250000e-01  0.000000e+00
     vertex -2.350000e-01  4.250000e-01  0.000000e+00
   endloop
 endfacet
 facet normal  0.000000e+00  0.000000e+00  1.000000e+00
   outer loop
     vertex -1.751750e-01  3.901750e-01  0.000000e+00
     vertex -1.975000e-01  4.033494e-01  0.000000e+00
     vertex -2.100000e-01  3.757500e-01  0.000000e+00
   endloop
 endfacet
 facet normal  0.000000e+00  0.000000e+00  1.000000e+00
   outer loop
     vertex -2.225000e-01  4.466506e-01  0.000000e+00
     vertex -2.448250e-01  4.598250e-01  0.000000e+00
     vertex -2.350000e-01  4.250000e-01  0.000000e+00
   endloop
 endfacet
 facet normal  0.000000e+00  0.000000e+00  1.000000e+00
   outer loop
     vertex -1.850000e-01  4.250000e-01  0.000000e+00
     vertex -1.975000e-01  4.033494e-01  0.000000e+00
     vertex -1.751750e-01  3.901750e-01  0.000000e+00
   endloop
 endfacet
 facet normal  0.000000e+00  0.000000e+00  1.000000e+00
   outer loop
     vertex -2.100000e-01  4.742500e-01  0.000000e+00
     vertex -2.225000e-01  4.466506e-01  0.000000e+00
     vertex -1.975000e-01  4.466506e-01  0.000000e+00
   endloop
 endfacet
 facet normal  0.000000e+00  0.000000e+00  1.000000e+00
   outer loop
     vertex -2.100000e-01  4.742500e-01  0.000000e+00
     vertex -2.448250e-01  4.598250e-01  0.000000e+00
     vertex -2.225000e-01  4.466506e-01  0.000000e+00
   endloop
 endfacet
 facet normal  0.000000e+00  0.000000e+00  1.000000e+00
   outer loop
     vertex -1.607500e-01  4.250000e-01  0.000000e+00
     vertex -1.850000e-01  4.250000e-01  0.000000e+00
     vertex -1.751750e-01  3.901750e-01  0.000000e+00
   endloop
 endfacet
 facet normal  0.000000e+00  0.000000e+00  1.000000e+00
   outer loop
     vertex -1.751750e-01  4.598250e-01  0.000000e+00
     vertex -1.975000e-01  4.466506e-01  0.000000e+00
     vertex -1.850000e-01  4.250000e-01  0.000000e+00
   endloop
 endfacet
 facet normal  0.000000e+00  0.000000e+00  1.000000e+00
   outer loop
     vertex -1.751750e-01  4.598250e-01  0.000000e+00
     vertex -1.850000e-01  4.250000e-01  0.000000e+00
     vertex -1.607500e-01  4.250000e-01  0.000000e+00
   endloop
 endfacet
 facet normal  0.000000e+00  0.000000e+00  1.000000e+00
   outer loop
     vertex -1.751750e-01  4.598250e-01  0.000000e+00
     vertex -2.100000e-01  4.742500e-01  0.000000e+00
     vertex -1.975000e-01  4.466506e-01  0.000000e+00
   endloop
 endfacet
 facet normal  0.000000e+00 -0.000000e+00 -1.000000e+00
   outer loop
     vertex -2.225000e-01  4.033494e-01 -3.200000e-02
     vertex -2.100000e-01  3.757500e-01 -3.200000e-02
     vertex -2.448250e-01  3.901750e-01 -3.200000e-02
   endloop
 endfacet
 facet normal -0.000000e+00  0.000000e+00 -1.000000e+00
   outer loop
     vertex -2.350000e-01  4.250000e-01 -3.200000e-02
     vertex -2.448250e-01  3.901750e-01 -3.200000e-02
     vertex -2.592500e-01  4.250000e-01 -3.200000e-02
   endloop
 endfacet
 facet normal  0.000000e+00 -0.000000e+00 -1.000000e+00
   outer loop
     vertex -2.350000e-01  4.250000e-01 -3.200000e-02
     vertex -2.225000e-01  4.033494e-01 -3.200000e-02
     vertex -2.448250e-01  3.901750e-01 -3.200000e-02
   endloop
 endfacet
 facet normal -0.000000e+00  0.000000e+00 -1.000000e+00
   outer loop
     vertex -1.975000e-01  4.033494e-01 -3.200000e-02
     vertex -2.100000e-01  3.757500e-01 -3.200000e-02
     vertex -2.225000e-01  4.033494e-01 -3.200000e-02
   endloop
 endfacet
 facet normal  0.000000e+00 -0.000000e+00 -1.000000e+00
   outer loop
     vertex -2.448250e-01  4.598250e-01 -3.200000e-02
     vertex -2.350000e-01  4.250000e-01 -3.200000e-02
     vertex -2.592500e-01  4.250000e-01 -3.200000e-02
   endloop
 endfacet
 facet normal -0.000000e+00  0.000000e+00 -1.000000e+00
   outer loop
     vertex -1.751750e-01  3.901750e-01 -3.200000e-02
     vertex -2.100000e-01  3.757500e-01 -3.200000e-02
     vertex -1.975000e-01  4.033494e-01 -3.200000e-02
   endloop
 endfacet
 facet normal -0.000000e+00  0.000000e+00 -1.000000e+00
   outer loop
     vertex -2.225000e-01  4.466506e-01 -3.200000e-02
     vertex -2.350000e-01  4.250000e-01 -3.200000e-02
     vertex -2.448250e-01  4.598250e-01 -3.200000e-02
   endloop
 endfacet
 facet normal  0.000000e+00 -0.000000e+00 -1.000000e+00
   outer loop
     vertex -1.850000e-01  4.250000e-01 -3.200000e-02
     vertex -1.751750e-01  3.901750e-01 -3.200000e-02
     vertex -1.975000e-01  4.033494e-01 -3.200000e-02
   endloop
 endfacet
 facet normal  0.000000e+00 -0.000000e+00 -1.000000e+00
   outer loop
     vertex -2.100000e-01  4.742500e-01 -3.200000e-02
     vertex -1.975000e-01  4.466506e-01 -3.200000e-02
     vertex -2.225000e-01  4.466506e-01 -3.200000e-02
   endloop
 endfacet
 facet normal  0.000000e+00  0.000000e+00 -1.000000e+00
   outer loop
     vertex -2.100000e-01  4.742500e-01 -3.200000e-02
     vertex -2.225000e-01  4.466506e-01 -3.200000e-02
     vertex -2.448250e-01  4.598250e-01 -3.200000e-02
   endloop
 endfacet
 facet normal -0.000000e+00  0.000000e+00 -1.000000e+00
   outer loop
     vertex -1.607500e-01  4.250000e-01 -3.200000e-02
     vertex -1.751750e-01  3.901750e-01 -3.200000e-02
     vertex -1.850000e-01  4.250000e-01 -3.200000e-02
   endloop
 endfacet
 facet normal  0.000000e+00  0.000000e+00 -1.000000e+00
   outer loop
     vertex -1.751750e-01  4.598250e-01 -3.200000e-02
     vertex -1.850000e-01  4.250000e-01 -3.200000e-02
     vertex -1.975000e-01  4.466506e-01 -3.200000e-02
   endloop
 endfacet
 facet normal  0.000000e+00 -0.000000e+00 -1.000000e+00
   outer loop
     vertex -1.751750e-01  4.598250e-01 -3.200000e-02
     vertex -1.607500e-01  4.250000e-01 -3.200000e-02
     vertex -1.850000e-01  4.250000e-01 -3.200000e-02
   endloop
 endfacet
 facet normal -0.000000e+00  0.000000e+00 -1.000000e+00
   outer loop
     vertex -1.751750e-01  4.598250e-01 -3.200000e-02
     vertex -1.975000e-01  4.466506e-01 -3.200000e-02
     vertex -2.100000e-01  4.742500e-01 -3.200000e-02
   endloop
 endfacet
endsolid
